<?xml version="1.0" encoding="UTF-8" standalone="no"?>
<!-- Generator: Adobe Illustrator 16.0.0, SVG Export Plug-In . SVG Version: 6.00 Build 0)  -->

<svg
   xmlns:dc="http://purl.org/dc/elements/1.1/"
   xmlns:cc="http://creativecommons.org/ns#"
   xmlns:rdf="http://www.w3.org/1999/02/22-rdf-syntax-ns#"
   xmlns:svg="http://www.w3.org/2000/svg"
   xmlns="http://www.w3.org/2000/svg"
   xmlns:xlink="http://www.w3.org/1999/xlink"
   xmlns:sodipodi="http://sodipodi.sourceforge.net/DTD/sodipodi-0.dtd"
   xmlns:inkscape="http://www.inkscape.org/namespaces/inkscape"
   version="1.1"
   id="圖層_1"
   x="0px"
   y="0px"
   width="200"
   height="174.6665"
   viewBox="0 0 200 174.6665"
   enable-background="new 0 0 1213.23 841.89"
   xml:space="preserve"
   inkscape:version="0.48.4 r9939"
   sodipodi:docname="役政署.svg"><metadata
   id="metadata25"><rdf:RDF><cc:Work
       rdf:about=""><dc:format>image/svg+xml</dc:format><dc:type
         rdf:resource="http://purl.org/dc/dcmitype/StillImage" /></cc:Work></rdf:RDF></metadata><defs
   id="defs23" /><sodipodi:namedview
   pagecolor="#ffffff"
   bordercolor="#666666"
   borderopacity="1"
   objecttolerance="10"
   gridtolerance="10"
   guidetolerance="10"
   inkscape:pageopacity="0"
   inkscape:pageshadow="2"
   inkscape:window-width="1366"
   inkscape:window-height="705"
   id="namedview21"
   showgrid="false"
   fit-margin-top="0"
   fit-margin-left="0"
   fit-margin-right="0"
   fit-margin-bottom="0"
   inkscape:zoom="2.6856805"
   inkscape:cx="-4.4174685"
   inkscape:cy="84.272664"
   inkscape:window-x="-8"
   inkscape:window-y="-8"
   inkscape:window-maximized="1"
   inkscape:current-layer="圖層_1" />

<g
   id="g3002"
   transform="matrix(2.2456769,0,0,2.2456769,-2.7193746e-6,2.9983926e-5)"><g
     transform="translate(-664.01599,-55.532014)"
     id="g3">
	<path
   style="fill:#ffffff"
   inkscape:connector-curvature="0"
   id="path5"
   d="m 747.34,94.325 c 0,21.425 -17.368,38.793 -38.793,38.793 -21.426,0 -38.793,-17.368 -38.793,-38.793 0,-21.425 17.367,-38.793 38.793,-38.793 21.425,0 38.793,17.368 38.793,38.793" />
</g><g
     transform="translate(-664.01599,-55.532014)"
     id="g7">
	<defs
   id="defs9">
		<rect
   height="77.778999"
   width="89.060997"
   y="55.532001"
   x="664.01599"
   id="SVGID_1_" />
	</defs>
	<clipPath
   id="SVGID_2_">
		<use
   height="841.89001"
   width="1213.23"
   y="0"
   x="0"
   style="overflow:visible"
   id="use13"
   overflow="visible"
   xlink:href="#SVGID_1_" />
	</clipPath>
	<path
   style="fill:#1e8644"
   inkscape:connector-curvature="0"
   id="path15"
   d="m 696.158,113.786 c 0,0 9.133,-1.256 10.391,-10.391 h -2.048 c 0,0 -1.105,9.446 -11.655,8.032 0,0 -5.976,-2.834 -6.767,-12.28 h -9.135 l 9.918,-11.023 h -22.847 v 24.493 l 6.948,-7.927 c 4.503,16.491 19.559,28.621 37.471,28.621 16.595,0 30.726,-10.408 36.311,-25.037 h -19.147 c 0,0 -10.071,17.317 -29.44,5.512"
   clip-path="url(#SVGID_2_)" />
	<path
   style="fill:#e08024"
   inkscape:connector-curvature="0"
   id="path17"
   d="m 746.57,86.783 c -3.549,-17.819 -19.271,-31.25 -38.136,-31.25 -18.149,0 -33.358,12.455 -37.644,29.283 h 17.017 v -8.503 c 0,0 -0.779,-3.782 5.358,-3.622 h 30.699 c 0,0 5.203,0.637 4.886,3.942 V 88.439 H 708.907 V 89.7 h 8.029 v 9.129 h 6.301 c 0,0 -0.941,-6.447 5.354,-7.238 0,0 3.941,0.464 4.724,2.671 0,0 2.828,6.766 -4.412,10.079 h 24.173 V 80.507 l -6.506,6.276 z"
   clip-path="url(#SVGID_2_)" />
	<path
   style="fill:#1e8644"
   inkscape:connector-curvature="0"
   id="path19"
   d="m 699.816,93.196 c 0,2.384 -1.931,4.314 -4.315,4.314 -2.384,0 -4.316,-1.93 -4.316,-4.314 0,-2.385 1.933,-4.314 4.316,-4.314 2.385,0 4.315,1.93 4.315,4.314"
   clip-path="url(#SVGID_2_)" />
</g></g>
</svg>